<svg width="370" height="57" viewBox="0 0 370 57" fill="none" xmlns="http://www.w3.org/2000/svg">
<g clip-path="url(#clip0_487_480)">
<path d="M64.6777 35.1171L64.3235 34.0231C63.8434 32.5255 62.2264 31.7013 60.7338 32.1843L31.9156 41.5254C31.6771 41.6018 31.4705 41.705 31.2784 41.8192C30.0113 40.2481 28.2307 39.1054 26.1671 38.6558C26.1089 38.3467 26.0231 38.0056 25.9053 37.6441L15.6259 5.99197C15.1407 4.49938 13.5114 2.91587 12.005 2.47071L3.98339 0.115446C2.4777 -0.327531 0.883281 0.543875 0.439577 2.05174L0.115891 3.153C-0.327812 4.65941 0.542138 6.25456 2.04928 6.69681L6.58888 8.03374C8.09529 8.47453 9.7239 10.0588 10.2105 11.5514L19.0759 38.8231C19.1937 39.1832 19.3392 39.5076 19.5014 39.7927C17.0988 41.2744 15.4142 43.8479 15.204 46.8738C14.8585 51.8549 18.6292 56.1902 23.6126 56.5349C28.5777 56.8812 32.8947 53.1344 33.2686 48.1802C33.5304 48.1649 33.8017 48.1242 34.0861 48.0318L62.8367 38.7148C64.3315 38.2289 65.1592 36.6134 64.6777 35.1171ZM23.9697 51.4032C21.8159 51.2541 20.188 49.3818 20.3371 47.2288C20.487 45.075 22.3585 43.4471 24.5109 43.5962C26.6625 43.7453 28.2918 45.6169 28.142 47.7707C27.9936 49.9223 26.1213 51.5516 23.9697 51.4032Z" fill="#019DF2"/>
<path d="M29.2141 35.2226C29.6964 36.7152 31.3119 37.5444 32.806 37.0607L56.0451 29.5694C57.5392 29.0878 58.3677 27.4716 57.8854 25.9768L51.7848 7.02486C51.3019 5.52863 49.6878 4.70596 48.1937 5.19404L43.313 6.78992C41.8211 7.27944 40.997 8.90078 41.4793 10.3934L42.1288 12.398C42.6133 13.8899 41.787 15.5069 40.2922 15.9884L37.3361 16.9391C35.8421 17.4192 34.2229 16.5885 33.7399 15.0966L33.0904 13.0905C32.6074 11.5979 30.9875 10.7643 29.492 11.2415L24.9553 12.6861C23.4584 13.1618 22.6284 14.7744 23.1099 16.2692L29.2141 35.2226Z" fill="#019DF2"/>
<path d="M35.4842 12.9763C35.8064 13.9736 36.8793 14.5184 37.8729 14.1867L38.1115 14.1088C39.1036 13.7801 39.6543 12.6919 39.3335 11.6961L38.8432 10.1693C38.5225 9.17137 37.4481 8.6251 36.4545 8.95752L36.2167 9.0368C35.223 9.36776 34.6731 10.4545 34.9925 11.4488L35.4842 12.9763Z" fill="#019DF2"/>
<path d="M104.774 1.54077C109.454 1.54077 113.22 5.30666 113.22 9.98711V15.5821C113.22 20.2626 109.454 24.0285 104.774 24.0285H89.1187C88.3655 24.0285 87.7737 23.6519 87.6123 23.1677V41.2978C87.6123 41.6206 87.3433 41.8895 87.0205 41.8895H84.8148V3.10092C84.8148 2.24015 85.5142 1.54077 86.375 1.54077H104.774ZM110.423 16.0663V9.50293C110.423 6.38262 107.894 3.8541 104.774 3.8541H88.2041C87.8813 3.8541 87.6123 4.12309 87.6123 4.44588V20.7468C87.6123 21.2848 88.0427 21.7152 88.5807 21.7152H104.774C107.894 21.7152 110.423 19.1866 110.423 16.0663ZM118.062 14.9904H120.483V16.7657C120.483 16.7657 121.559 14.9904 125.217 14.9904H131.35V16.6581C131.35 16.9809 131.081 17.1961 130.759 17.1961H124.141C120.376 17.1961 120.483 21.0696 120.483 21.0696V41.8895H118.062V14.9904ZM150.933 42.2661H142.809C139.097 42.2661 136.138 39.2534 136.138 35.5413V21.3924C136.138 17.6803 139.097 14.6138 142.809 14.6138H150.933C154.591 14.6138 157.55 17.6803 157.55 21.3924V35.5413C157.55 39.2534 154.591 42.2661 150.933 42.2661ZM150.933 16.8733H142.809C140.442 16.8733 138.559 18.81 138.559 21.1772V35.7565C138.559 38.1237 140.442 40.0066 142.809 40.0066H150.933C153.246 40.0066 155.129 38.1237 155.129 35.7565V21.1772C155.129 18.81 153.246 16.8733 150.933 16.8733ZM163.629 35.1648V21.769C163.629 18.0569 166.588 15.0442 170.3 15.0442H181.329V16.6581C181.329 16.9809 181.114 17.2499 180.791 17.2499H170.3C167.933 17.2499 166.05 19.1866 166.05 21.5538V35.3799C166.05 37.7471 167.933 39.63 170.3 39.63H180.791C181.114 39.63 181.329 39.899 181.329 40.2218V41.8895H170.3C166.588 41.8895 163.629 38.8768 163.629 35.1648ZM187.462 35.1648V14.9366H189.291C189.614 14.9366 189.883 15.2056 189.883 15.5283V35.3799C189.883 37.7471 191.766 39.63 194.133 39.63H202.257C204.57 39.63 206.453 37.7471 206.453 35.3799V15.5283C206.453 15.2056 206.722 14.9366 207.045 14.9366H208.874V35.1648C208.874 38.8768 205.915 41.8895 202.257 41.8895H194.133C190.421 41.8895 187.462 38.8768 187.462 35.1648ZM215.383 14.9904H217.804V16.7657C217.804 16.7657 218.88 14.9904 222.539 14.9904H228.672V16.6581C228.672 16.9809 228.403 17.1961 228.08 17.1961H221.463C217.697 17.1961 217.804 21.0696 217.804 21.0696V41.8895H215.383V14.9904ZM241.368 41.8895C237.656 41.8895 234.697 39.4686 234.697 35.3799V21.4462C234.697 17.4113 237.548 14.9904 241.207 14.9904H249.707C253.365 14.9904 256.216 17.4113 256.216 21.4462V28.7627C256.216 29.1393 255.947 29.4083 255.625 29.4083H238.355C237.871 29.4083 237.441 29.1393 237.172 28.7627H237.118V35.3261C237.118 37.6933 239.001 39.5762 241.368 39.5762H255.194C255.517 39.5762 255.786 39.8452 255.786 40.168V41.8895H241.368ZM249.707 17.1961H241.207C238.893 17.1961 237.118 19.1328 237.118 21.5V26.557C237.118 26.8798 237.333 27.095 237.71 27.1488H253.795V21.5C253.795 19.1328 252.02 17.1961 249.707 17.1961ZM265.093 9.50293V15.9587C265.093 16.2815 265.362 16.6581 265.631 16.7119L289.84 24.7279C290.647 24.9969 291.347 25.9114 291.347 26.7722V33.4432C291.347 38.1237 287.527 41.8895 282.9 41.8895H261.811V40.168C261.811 39.8452 262.08 39.5762 262.403 39.5762H282.9C286.021 39.5762 288.549 37.0477 288.549 33.9274V27.4178C288.549 27.095 288.28 26.7722 287.957 26.6646L263.748 18.6487C262.941 18.3797 262.296 17.4651 262.296 16.6043V9.98711C262.296 5.30666 266.062 1.54077 270.742 1.54077H290.163V3.26232C290.163 3.58511 289.894 3.8541 289.571 3.8541H270.742C267.622 3.8541 265.093 6.38262 265.093 9.50293ZM317.493 14.9904C317.816 14.9904 318.085 15.2056 318.085 15.5283V48.2378C318.085 52.0036 315.126 55.0163 311.414 55.0163H297.964V53.3486C297.964 53.0258 298.233 52.7568 298.502 52.7568H311.414C313.781 52.7568 315.664 50.8739 315.664 48.5067V41.0826C315.448 41.5668 314.91 41.8357 314.211 41.8357L303.667 41.8895C299.148 41.8895 297.049 38.823 297.049 35.111V14.9904H298.879C299.201 14.9904 299.47 15.2056 299.47 15.5283V35.1648C299.47 37.5319 300.492 39.63 303.667 39.63H314.695C315.233 39.63 315.664 39.1996 315.664 38.6616V14.9904H317.493ZM343.693 41.2978V21.5C343.693 19.1328 341.756 17.1961 339.443 17.1961H327.661C327.338 17.1961 327.069 17.4651 327.069 17.7879V41.2978C327.069 41.6206 326.8 41.8895 326.477 41.8895H324.648V17.3575C324.648 16.0663 325.724 14.9366 327.015 14.9366H339.443C343.101 14.9366 346.113 18.0031 346.113 21.7152V41.8895H344.231C343.962 41.8895 343.693 41.6206 343.693 41.2978ZM352.3 35.1648V21.769C352.3 18.0569 355.259 15.0442 358.971 15.0442H370V16.6581C370 16.9809 369.785 17.2499 369.462 17.2499H358.971C356.604 17.2499 354.721 19.1866 354.721 21.5538V35.3799C354.721 37.7471 356.604 39.63 358.971 39.63H369.462C369.785 39.63 370 39.899 370 40.2218V41.8895H358.971C355.259 41.8895 352.3 38.8768 352.3 35.1648Z" fill="white"/>
</g>
<defs>
<clipPath id="clip0_487_480">
<rect width="370" height="56.5571" fill="white"/>
</clipPath>
</defs>
</svg>
